<svg width="20" height="13" viewBox="0 0 20 13" fill="none" xmlns="http://www.w3.org/2000/svg">
<path d="M19.1342 5.59297H2.95577L6.81618 1.54832C7.15438 1.19421 7.15438 0.619788 6.81618 0.265736C6.47799 -0.0885786 5.92969 -0.0885786 5.59199 0.265736L0.253647 5.8586C-0.0845491 6.21271 -0.0845491 6.78719 0.253647 7.14119L5.59199 12.7343C5.76104 12.9115 5.98259 13 6.20409 13C6.42559 13 6.64713 12.9115 6.81618 12.7343C7.15438 12.3802 7.15438 11.8058 6.81618 11.4518L2.95577 7.40692H19.1342C19.6123 7.40692 20 7.0008 20 6.49992C20 5.99904 19.6124 5.59297 19.1342 5.59297Z" fill="#1D262C"/>
</svg>
