<svg width="375" height="277" viewBox="0 0 375 277" fill="none" xmlns="http://www.w3.org/2000/svg">
<path fill-rule="evenodd" clip-rule="evenodd" d="M139 209.778V216C139 215.748 140.3 214.825 140.514 214.626C140.765 214.393 142 213.568 142 213.222V207C142 207.252 140.701 208.175 140.486 208.374C140.235 208.607 139 209.432 139 209.778" fill="#FF7273"/>
<path fill-rule="evenodd" clip-rule="evenodd" d="M189 75.6224C190.102 76.7478 191.204 77.8744 192.307 78.9998C192.337 79.0294 195.011 76.3875 195 76.3764C193.898 75.251 192.797 74.1256 191.693 73.0002C191.665 72.9706 188.989 75.6113 189 75.6224" fill="#FF7273"/>
<path fill-rule="evenodd" clip-rule="evenodd" d="M356.002 192.624C357.647 194.54 359.703 196.015 362.108 196.998C362.239 197.053 363.428 195.825 363.567 195.699C363.7 195.58 364.884 194.326 365 194.373C362.598 193.39 360.539 191.916 358.896 190C358.952 190.065 355.908 192.514 356.002 192.624" fill="#FF7273"/>
<path fill-rule="evenodd" clip-rule="evenodd" d="M6.36366 47.7953C5.5383 50.3446 6.1347 53.0018 7.98148 55C7.96229 54.979 11.0595 52.2705 10.9991 52.2047C9.15372 50.2065 8.55732 47.5493 9.38131 45C9.24832 45.4117 8.19125 46.0747 7.85809 46.3825C7.48517 46.7285 6.52133 47.3073 6.36366 47.7953" fill="#FF7273"/>
<path fill-rule="evenodd" clip-rule="evenodd" d="M243.008 268.838C243.884 271.504 244.193 274.207 243.939 277C243.968 276.694 245.2 275.826 245.442 275.595C245.723 275.326 246.878 274.561 246.915 274.161C247.167 271.369 246.859 268.666 245.982 266C246.161 266.541 242.812 268.244 243.008 268.838" fill="#FF7273"/>
<path fill-rule="evenodd" clip-rule="evenodd" d="M304.238 31.8433C304.295 34.7937 303.538 37.5487 302 40C302.692 38.8975 304.059 38.2686 304.759 37.1567C306.298 34.7041 307.053 31.9504 306.997 29C307.002 29.2475 305.795 30.2096 305.605 30.4063C305.38 30.6378 304.232 31.4995 304.238 31.8433" fill="#FFC764"/>
<path fill-rule="evenodd" clip-rule="evenodd" d="M281.934 193.812C282.162 196.282 281.851 198.664 281 201C281.158 200.567 282.162 199.935 282.511 199.608C282.897 199.245 283.809 198.693 283.994 198.188C284.845 195.852 285.155 193.47 284.928 191C284.947 191.212 283.606 192.214 283.417 192.391C283.197 192.599 281.906 193.508 281.934 193.812" fill="#FFC764"/>
<path fill-rule="evenodd" clip-rule="evenodd" d="M107.242 15.7637C106.756 17.9097 107.003 20.0075 107.974 22C107.94 21.9298 109.373 20.7488 109.502 20.6318C109.641 20.5043 111.065 19.3702 110.998 19.235C110.025 17.2425 109.779 15.146 110.266 13C110.184 13.3616 109.033 14.099 108.739 14.3669C108.404 14.6738 107.344 15.3163 107.242 15.7637" fill="#FFC764"/>
<path fill-rule="evenodd" clip-rule="evenodd" d="M79.5995 249.977C81.7181 248.296 83.2165 246.035 83.9999 243.34C84.0211 243.268 80.3966 242.013 80.4004 242C79.6182 244.695 78.1186 246.955 76 248.636C76.1333 248.531 77.5905 249.25 77.7935 249.326C78.0289 249.413 79.3978 250.137 79.5995 249.977" fill="#6487FE"/>
<path fill-rule="evenodd" clip-rule="evenodd" d="M223.002 14.7762C223.801 16.8508 224.599 18.9254 225.397 21C225.366 20.9203 226.597 19.7471 226.71 19.6256C226.834 19.4937 228.055 18.3728 227.998 18.2238C227.199 16.1492 226.401 14.0733 225.601 12C225.633 12.0797 224.403 13.2516 224.29 13.3731C224.164 13.5063 222.944 14.6259 223.002 14.7762" fill="#6487FE"/>
<path fill-rule="evenodd" clip-rule="evenodd" d="M221.041 204.758C220.664 208.112 222.906 211.276 226.171 211.999C226.381 212.045 227.428 210.802 227.6 210.633C227.767 210.47 228.797 209.195 229 209.241C225.734 208.518 223.493 205.352 223.87 202C223.836 202.309 222.68 203.132 222.442 203.364C222.166 203.634 221.086 204.357 221.041 204.758" fill="#6487FE"/>
<path fill-rule="evenodd" clip-rule="evenodd" d="M119.844 84.5615C119.738 84.4628 119.633 84.3642 119.528 84.2655C118.95 83.7243 118 84.0306 118 85.0001C118 85.9658 118.95 86.2772 119.528 85.7347C119.633 85.6361 119.738 85.5375 119.844 85.4388C120.053 85.2428 120.052 84.7561 119.844 84.5615" fill="#FFC764"/>
<path fill-rule="evenodd" clip-rule="evenodd" d="M262 70C264.664 70 264.669 65 262 65C259.336 65 259.331 70 262 70" fill="#FFC764"/>
<path fill-rule="evenodd" clip-rule="evenodd" d="M355 265C357.664 265 357.669 261 355 261C352.335 261 352.332 265 355 265" fill="#FFC764"/>
<path fill-rule="evenodd" clip-rule="evenodd" d="M179.899 250.219C179.549 250.124 179.2 250 178.827 250C178.26 250 177.892 250.236 177.471 250.522C176.841 250.953 176.845 252.05 177.471 252.478C177.892 252.764 178.26 253 178.827 253C179.2 253 179.549 252.877 179.899 252.781C181.366 252.381 181.368 250.619 179.899 250.219" fill="#FFC764"/>
<path fill-rule="evenodd" clip-rule="evenodd" d="M57.2394 13.7941C57.1779 13.978 57.1163 14.1607 57.0548 14.3447C56.862 14.9255 57.1984 15.4575 57.744 15.7846L57.8398 15.8428C58.1898 16.0524 58.8093 16.0524 59.1594 15.8428L59.2565 15.7846C59.8021 15.4575 60.1372 14.9209 59.9457 14.3447C59.8842 14.1607 59.8226 13.978 59.7611 13.7941C59.4069 12.7359 57.5936 12.7347 57.2394 13.7941" fill="#6487FE"/>
<path fill-rule="evenodd" clip-rule="evenodd" d="M309 244C310.333 244 310.334 242 309 242C307.668 242 307.665 244 309 244" fill="#6487FE"/>
<path fill-rule="evenodd" clip-rule="evenodd" d="M171 18C172.332 18 172.334 15 171 15C169.668 15 169.666 18 171 18" fill="#FF7273"/>
<path fill-rule="evenodd" clip-rule="evenodd" d="M52.9823 89.1274C52.9124 88.7999 52.8971 88.517 52.621 88.2438C52.2938 87.9187 51.7058 87.9187 51.3786 88.2438C51.1042 88.5146 51.0871 88.8048 51.0172 89.1274C50.7718 90.2867 53.2311 90.2951 52.9823 89.1274" fill="#FF7273"/>
<path fill-rule="evenodd" clip-rule="evenodd" d="M18.5002 266C19.1666 266 19.1666 265 18.5002 265C17.8338 265 17.8328 266 18.5002 266" fill="#FF7273"/>
<path fill-rule="evenodd" clip-rule="evenodd" d="M340 159C341.332 159 341.335 157 340 157C338.668 157 338.666 159 340 159" fill="#FF7273"/>
<path fill-rule="evenodd" clip-rule="evenodd" d="M152.5 93.699C152.756 93.699 152.757 93.301 152.5 93.301C152.244 93.301 152.243 93.699 152.5 93.699" fill="#FFC764"/>
<path fill-rule="evenodd" clip-rule="evenodd" d="M282.5 0.759C282.833 0.759 282.834 0.241 282.5 0.241C282.167 0.241 282.166 0.759 282.5 0.759" fill="#FFC764"/>
<path fill-rule="evenodd" clip-rule="evenodd" d="M365.5 56.791C365.874 56.791 365.874 56.209 365.5 56.209C365.125 56.209 365.125 56.791 365.5 56.791" fill="#FFC764"/>
</svg>
